<?xml version="1.0" standalone="no"?>
<!DOCTYPE svg PUBLIC "-//W3C//DTD SVG 20010904//EN"
 "http://www.w3.org/TR/2001/REC-SVG-20010904/DTD/svg10.dtd">
<svg version="1.0" xmlns="http://www.w3.org/2000/svg"
 width="806.000000pt" height="180.000000pt" viewBox="0 0 806.000000 180.000000"
 preserveAspectRatio="xMidYMid meet">

<g transform="translate(0.000000,180.000000) scale(0.100000,-0.100000)"
fill="#000000" stroke="none">
<path d="M4695 1546 c-110 -51 -208 -159 -326 -358 -74 -124 -217 -413 -265
-536 -30 -78 -112 -179 -227 -280 -60 -52 -134 -95 -149 -86 -29 18 13 140
112 318 34 60 60 116 58 125 -4 18 -53 26 -104 16 -24 -4 -39 -16 -56 -43 -31
-51 -189 -234 -263 -306 -84 -82 -156 -128 -192 -124 -27 3 -28 5 -28 53 1
108 153 347 321 504 83 78 185 141 226 141 35 0 76 -29 99 -70 28 -50 62 -53
67 -6 7 62 -98 126 -209 126 -132 0 -235 -54 -376 -197 -147 -148 -250 -334
-260 -467 -4 -52 -2 -66 19 -96 30 -44 61 -60 118 -59 98 0 192 62 298 196 36
45 67 81 68 80 2 -2 -3 -25 -11 -52 -8 -26 -15 -74 -15 -106 0 -47 5 -63 24
-86 20 -23 32 -28 68 -27 73 1 133 39 245 153 100 101 101 102 92 65 -13 -60
-11 -132 7 -165 20 -39 73 -62 122 -53 85 15 183 86 292 211 l45 52 0 -87 c0
-74 4 -93 24 -125 33 -54 90 -80 171 -79 90 0 143 16 226 68 97 60 304 281
304 325 0 29 -23 23 -49 -12 -55 -74 -171 -184 -248 -236 -142 -94 -237 -117
-283 -68 -21 22 -22 31 -17 89 11 114 18 123 128 160 162 54 303 157 390 282
82 120 22 234 -123 234 -140 0 -336 -165 -454 -382 -28 -52 -72 -106 -159
-194 -125 -127 -168 -157 -213 -152 -37 4 -53 53 -41 129 31 196 327 753 555
1045 41 52 74 97 74 99 0 12 -39 3 -85 -19z m399 -612 c81 -31 -154 -283 -361
-388 -29 -14 -53 -21 -53 -15 0 6 12 31 27 57 112 196 241 318 370 352 1 0 8
-3 17 -6z"/>
<path d="M7724 1556 c-88 -28 -187 -118 -271 -248 -26 -40 -121 -219 -211
-398 l-163 -325 -114 -121 c-63 -67 -140 -138 -170 -159 -71 -47 -161 -77
-217 -73 -38 3 -45 7 -61 40 -16 32 -17 45 -7 100 17 92 64 206 122 295 76
117 215 247 286 268 30 9 29 -12 -8 -113 -16 -46 -30 -89 -30 -97 0 -27 35
-16 72 23 48 50 58 72 58 129 0 58 -26 105 -71 129 -44 22 -130 15 -192 -16
-109 -54 -236 -199 -313 -356 -37 -75 -61 -107 -139 -186 -146 -149 -222 -189
-259 -136 -50 71 17 264 187 536 42 68 77 132 77 143 0 26 -47 25 -111 -2 -44
-19 -55 -31 -106 -113 -116 -187 -182 -355 -190 -482 -6 -94 8 -133 60 -164
87 -53 196 -6 345 149 l82 86 -6 -55 c-8 -70 8 -131 47 -175 37 -42 80 -57
167 -57 124 0 197 39 344 180 l87 84 -29 -69 c-16 -37 -38 -92 -49 -121 l-21
-52 58 6 c72 8 96 23 120 77 71 161 518 665 556 627 10 -10 -41 -107 -136
-257 -111 -177 -151 -296 -128 -382 23 -87 126 -89 239 -6 59 44 271 280 271
302 0 35 -31 12 -144 -105 -90 -92 -140 -136 -180 -156 -46 -23 -59 -26 -71
-16 -36 29 -7 96 125 295 51 77 103 163 116 190 48 106 41 175 -21 195 -91 30
-209 -57 -421 -310 -37 -44 -69 -78 -71 -76 -6 6 192 395 278 546 69 123 213
343 265 408 24 28 24 32 8 31 -11 0 -37 -6 -60 -13z"/>
<path d="M1187 1487 c-153 -86 -442 -389 -746 -782 -51 -66 -97 -121 -102
-123 -4 -2 -36 4 -69 12 -76 20 -70 20 -70 -7 0 -27 37 -65 73 -75 l25 -7 -39
-64 c-46 -76 -56 -119 -40 -171 11 -38 51 -80 76 -80 7 0 22 24 34 53 27 66
116 218 137 234 37 28 280 73 477 89 74 5 79 5 73 -13 -50 -160 -21 -353 54
-353 18 0 20 7 20 59 0 67 37 292 50 305 5 5 29 2 57 -7 26 -9 49 -14 51 -12
10 9 -32 67 -58 80 -17 9 -30 22 -30 29 0 20 43 163 88 296 54 158 106 281
158 374 24 43 44 81 44 85 0 10 -82 87 -107 100 -40 20 -95 13 -156 -22z m153
-61 c0 -2 -27 -58 -60 -124 -72 -143 -147 -338 -200 -517 l-38 -130 -73 -7
c-106 -11 -391 -48 -411 -54 -10 -3 -18 -1 -18 5 0 5 43 67 96 137 229 305
520 614 634 674 32 18 70 26 70 16z"/>
<path d="M2793 1469 c-3 -18 -15 -34 -27 -40 -27 -11 -168 -39 -199 -39 -47 0
-62 -45 -27 -80 17 -17 33 -20 100 -20 44 0 80 -2 80 -5 0 -26 -152 -291 -341
-592 -35 -57 -85 -137 -111 -179 -51 -83 -73 -160 -62 -221 8 -45 30 -85 54
-101 16 -9 20 -4 40 51 18 50 174 360 209 415 6 11 20 9 69 -7 119 -40 252
-23 392 50 183 95 355 290 404 458 40 135 -4 270 -101 313 -58 26 -181 25
-302 -1 l-94 -21 -29 25 c-38 32 -47 31 -55 -6z m488 -122 c30 -20 34 -29 37
-71 13 -205 -366 -497 -715 -551 -25 -4 -43 -3 -43 3 0 5 36 69 80 143 87 144
230 421 230 444 0 8 10 17 23 20 106 25 166 33 253 34 90 1 105 -2 135 -22z"/>
<path d="M6335 1298 c-31 -17 -45 -39 -45 -73 0 -63 69 -87 115 -40 36 35 37
79 3 108 -23 19 -44 21 -73 5z"/>
<path d="M5825 1013 c0 -114 -4 -137 -28 -208 -110 -314 -338 -587 -479 -573
-32 3 -33 5 -36 51 -9 142 140 424 331 624 89 94 85 96 -126 88 -144 -6 -179
-5 -217 9 -25 9 -48 16 -52 16 -16 0 -7 -48 13 -74 17 -22 28 -26 74 -26 29 0
82 9 117 20 34 11 70 20 78 20 9 0 -19 -35 -60 -77 -121 -123 -214 -295 -246
-456 -39 -193 37 -282 201 -233 181 55 456 384 534 640 49 160 11 306 -79 306
l-25 0 0 -127z"/>
<path d="M1530 365 c-70 -38 -110 -75 -110 -105 0 -30 58 -73 89 -65 14 4 29
9 33 13 13 13 67 177 60 184 -4 4 -36 -9 -72 -27z"/>
</g>
</svg>
