<svg xmlns="http://www.w3.org/2000/svg" fill="none" viewBox="140 0 80 150">
    <g id="SvgjsG1487"
        transform="matrix(1.796046190387309,0,0,1.796046190387309,85.19679295083817,-19.803205336318705)"
        fill="none">
        <path xmlns="http://www.w3.org/2000/svg"
            d="M50,11.026c-21.525,0-38.974,17.449-38.974,38.974c0,12.283,5.688,23.232,14.567,30.376l-14.567,8.599H50  c21.525,0,38.975-17.449,38.975-38.975C88.975,28.475,71.523,11.026,50,11.026z M49.999,85.507H23.961l8.242-4.786  C21.617,74.574,14.493,63.123,14.493,50c0-19.61,15.896-35.506,35.506-35.506c19.61,0,35.507,15.896,35.507,35.506  C85.506,69.609,69.609,85.507,49.999,85.507z M38.165,60.521c0.581,0.581,0.581,1.521,0,2.103c-0.581,0.581-1.521,0.581-2.102,0  L24.516,51.076c-0.581-0.581-0.581-1.521,0-2.102l11.547-11.547c0.581-0.581,1.522-0.581,2.102,0c0.581,0.58,0.581,1.521,0,2.102  L27.669,50.025L38.165,60.521 M61.835,39.529c-0.581-0.581-0.581-1.521,0-2.102s1.521-0.581,2.103,0l11.547,11.547  c0.581,0.581,0.581,1.522,0,2.102L63.938,62.623c-0.581,0.581-1.522,0.581-2.103,0c-0.581-0.58-0.581-1.521,0-2.102l10.496-10.496  L61.835,39.529 M44.498,63.563c-0.206,0-0.415-0.044-0.615-0.134c-0.747-0.342-1.077-1.223-0.737-1.97l11.004-24.153  c0.34-0.747,1.221-1.077,1.968-0.736c0.748,0.34,1.077,1.221,0.737,1.968L45.851,62.692C45.602,63.24,45.062,63.563,44.498,63.563">
        </path>
    </g>
    <style>
        path { fill: #000; }
        @media (prefers-color-scheme: dark) {
            path { fill: #FFF; }
        }
    </style>
</svg>